<svg width="28" height="28" viewBox="0 0 28 28" fill="none" xmlns="http://www.w3.org/2000/svg">
<g clip-path="url(#clip0_961_1086)">
<path d="M5.3439 18.2605C5.4101 18.9124 5.76283 19.4972 6.26479 19.8922C5.9838 20.2228 5.81373 20.6504 5.81373 21.1172V22.8673C5.81373 23.6216 6.24909 24.2714 6.88723 24.5766C6.85108 24.751 6.83192 24.9315 6.83192 25.1163C6.83192 26.5794 8.02218 27.7696 9.48514 27.7696C10.9482 27.7696 12.1384 26.5794 12.1384 25.1163C12.1384 24.9964 12.1297 24.8785 12.1142 24.7628H16.4784C16.4629 24.8786 16.4541 24.9964 16.4541 25.1163C16.4541 26.5794 17.6444 27.7696 19.1074 27.7696C20.5703 27.7696 21.7606 26.5794 21.7606 25.1163C21.7606 23.6533 20.5703 22.4631 19.1074 22.4631C18.2199 22.4631 17.4334 22.9015 16.9514 23.5727H11.6411C11.1591 22.9015 10.3726 22.4631 9.48509 22.4631C8.63243 22.4631 7.87295 22.8678 7.38721 23.4948C7.1587 23.3782 7.0037 23.1416 7.0037 22.8674V21.1173C7.0037 20.7286 7.32011 20.4125 7.70905 20.4125C7.71087 20.4125 7.71263 20.4122 7.71444 20.4122C7.71807 20.4122 7.72169 20.4125 7.72526 20.4125H21.6386C22.789 20.4125 23.9806 19.5596 24.3514 18.4708L27.8869 8.08974C28.087 7.50238 28.0189 6.91014 27.7001 6.46486C27.3814 6.01958 26.8427 5.76415 26.2223 5.76415H24.9534L21.1295 1.92198C20.535 1.32759 19.5714 1.32243 18.9699 1.90588L12.5168 3.64167L10.7845 0.535635C10.6244 0.248641 10.2621 0.145779 9.97497 0.305768L6.51024 2.2381C6.37236 2.31495 6.27074 2.44349 6.22767 2.59531C6.18454 2.74714 6.20353 2.90985 6.28043 3.04768L7.79543 5.76409H6.36017C5.97746 5.76409 5.61696 5.86185 5.30435 6.04514L5.02336 3.23589C4.99293 2.93167 4.73693 2.70005 4.43124 2.70005H0.595071C0.266422 2.70005 0 2.96647 0 3.29512C0 3.62377 0.266422 3.89019 0.595071 3.89019H3.89273L5.3439 18.2605ZM19.1075 23.6532C19.9142 23.6532 20.5706 24.3095 20.5706 25.1163C20.5706 25.923 19.9142 26.5794 19.1075 26.5794C18.3007 26.5794 17.6444 25.9231 17.6444 25.1163C17.6444 24.3095 18.3007 23.6532 19.1075 23.6532ZM9.4852 23.6532C10.2919 23.6532 10.9483 24.3095 10.9483 25.1163C10.9483 25.923 10.2919 26.5794 9.4852 26.5794C8.67845 26.5794 8.02212 25.9231 8.02212 25.1163C8.02212 24.3095 8.67845 23.6532 9.4852 23.6532ZM20.2872 2.7625L23.2745 5.76409H16.7942L19.7947 2.76358C19.9307 2.62751 20.152 2.62751 20.2872 2.7625ZM17.2831 3.59209L15.1111 5.76409H13.7005L13.1145 4.71342L17.2831 3.59209ZM7.60959 2.98766L10.0349 1.63504L12.3378 5.76409H9.15808L7.60959 2.98766ZM26.7605 7.70595L23.225 18.087C23.019 18.6917 22.2777 19.2222 21.6388 19.2222H7.72543C7.13586 19.2222 6.58743 18.7267 6.52792 18.1403L6.31767 16.0664H19.1116C19.4402 16.0664 19.7066 15.8 19.7066 15.4713C19.7066 15.1427 19.4402 14.8763 19.1116 14.8763H6.19707L5.49284 7.92969C5.49284 7.92952 5.49284 7.92947 5.49284 7.92935L5.49273 7.92805C5.46592 7.66344 5.54254 7.41663 5.7086 7.2329C5.87097 7.05318 6.10236 6.95423 6.36017 6.95423H24.7007C24.7027 6.95429 24.7046 6.95452 24.7065 6.95452C24.7085 6.95452 24.7104 6.95429 24.7123 6.95423H26.2225C26.4576 6.95423 26.6388 7.02643 26.7326 7.15752C26.8265 7.28855 26.8363 7.48333 26.7605 7.70595Z" fill="white"/>
</g>
<defs>
<clipPath id="clip0_961_1086">
<rect width="28" height="28" fill="white"/>
</clipPath>
</defs>
</svg>
