<svg width="30" height="30" viewBox="0 0 30 30" fill="none" xmlns="http://www.w3.org/2000/svg">
<path d="M18.4214 8.84562V6.66961H17.4109V4.93844C17.4109 3.88454 16.8046 2.98596 15.794 2.65218V0H14.1771V2.65218C13.2676 2.98596 12.5603 3.88454 12.5603 4.93844V6.66961H11.6508V8.81278C7.30541 10.2353 4.07894 14.4028 4.14857 19.3027C4.23295 25.2488 9.17432 30.0583 15.1208 29.9994C21.065 29.9405 25.8532 25.1033 25.8532 19.1449C25.8531 14.3509 22.7668 10.283 18.4214 8.84562ZM14.1771 4.93844C14.1771 4.71663 14.2838 4.51553 14.4291 4.3693C14.5754 4.51664 14.7866 4.60799 15.0108 4.60799C15.2351 4.60799 15.4253 4.51664 15.5716 4.3693C15.7168 4.51543 15.794 4.71652 15.794 4.93844V6.66961H14.1771V4.93844ZM19.4826 20.0966C18.6249 21.4427 14.9073 24.0353 14.9073 24.0353C14.9073 24.0353 11.213 21.2824 10.4144 19.9005C9.61572 18.5187 10.0885 16.751 11.4704 15.9524C12.6568 15.2667 14.1269 15.7702 15.0247 16.7295C15.9631 15.8099 17.4428 15.3702 18.5984 16.1065C19.9443 16.9641 20.3402 18.7506 19.4826 20.0966Z" fill="white"/>
<path d="M18.5987 16.1066C17.443 15.3703 15.9634 15.8099 15.025 16.7296C14.1272 15.7703 12.6571 15.2667 11.4707 15.9525C10.0889 16.7511 9.61602 18.5188 10.4147 19.9006C11.2133 21.2824 14.9076 24.0355 14.9076 24.0355C14.9076 24.0355 18.6252 21.4428 19.4829 20.0968C20.3406 18.7507 19.9447 16.9643 18.5987 16.1066Z" fill="#478033"/>
</svg>
