<svg width="30" height="30" viewBox="0 0 30 30" fill="none" xmlns="http://www.w3.org/2000/svg">
<path d="M18.4214 8.84562V6.66961H17.4109V4.93844C17.4109 3.88454 16.8046 2.98596 15.794 2.65218V0H14.1771V2.65218C13.2676 2.98596 12.5603 3.88454 12.5603 4.93844V6.66961H11.6508V8.81278C7.30541 10.2353 4.07894 14.4028 4.14857 19.3027C4.23295 25.2488 9.17432 30.0583 15.1208 29.9994C21.065 29.9405 25.8532 25.1033 25.8532 19.1449C25.8531 14.3509 22.7668 10.283 18.4214 8.84562ZM14.1771 4.93844C14.1771 4.71663 14.2838 4.51553 14.4291 4.3693C14.5754 4.51664 14.7866 4.60799 15.0108 4.60799C15.2351 4.60799 15.4253 4.51664 15.5716 4.3693C15.7168 4.51543 15.794 4.71652 15.794 4.93844V6.66961H14.1771V4.93844ZM19.4826 20.0966C18.6249 21.4427 14.9073 24.0353 14.9073 24.0353C14.9073 24.0353 11.213 21.2824 10.4144 19.9005C9.61572 18.5187 10.0885 16.751 11.4704 15.9524C12.6568 15.2667 14.1269 15.7702 15.0247 16.7295C15.9631 15.8099 17.4428 15.3702 18.5984 16.1065C19.9443 16.9641 20.3402 18.7506 19.4826 20.0966Z" fill="#E23F3F"/>
<path d="M18.5977 16.1069C17.442 15.3706 15.9624 15.8102 15.024 16.7299C14.1262 15.7705 12.6561 15.267 11.4697 15.9527C10.0879 16.7514 9.61504 18.519 10.4137 19.9009C11.2123 21.2827 14.9067 24.0357 14.9067 24.0357C14.9067 24.0357 18.6243 21.443 19.4819 20.097C20.3397 18.751 19.9437 16.9645 18.5977 16.1069Z" fill="white"/>
</svg>
