<svg width="12" height="12" viewBox="0 0 12 12" fill="none" xmlns="http://www.w3.org/2000/svg">
<g clip-path="url(#clip0_974_35)">
<path d="M11.9801 3.74835C11.8049 1.82039 10.4403 0.421618 8.73253 0.421618C7.59477 0.421618 6.55302 1.03388 5.96683 2.01517C5.38595 1.02119 4.38689 0.421387 3.26736 0.421387C1.5598 0.421387 0.194957 1.82016 0.0200235 3.74812C0.0061765 3.83328 -0.050596 4.28146 0.122029 5.01234C0.370813 6.06656 0.945462 7.02546 1.78343 7.78473L5.96406 11.5786L10.2165 7.78497C11.0544 7.02546 11.6291 6.06679 11.8779 5.01234C12.0505 4.28169 11.9937 3.83351 11.9801 3.74835ZM11.4285 4.90664C11.2014 5.86947 10.675 6.74667 9.90767 7.44179L5.96683 10.9578L2.0936 7.44271C1.32487 6.74621 0.798684 5.86924 0.571363 4.90641C0.407969 4.21476 0.475127 3.82404 0.475357 3.82151L0.478819 3.7982C0.628828 2.1091 1.80143 0.882952 3.26736 0.882952C4.34904 0.882952 5.30125 1.54761 5.75312 2.61728L5.96567 3.12108L6.17822 2.61728C6.62294 1.56399 7.62546 0.883183 8.73276 0.883183C10.1985 0.883183 11.3713 2.10933 11.5243 3.82035C11.5248 3.82404 11.5919 4.21499 11.4285 4.90664Z" fill="#B9B9B9"/>
</g>
<defs>
<clipPath id="clip0_974_35">
<rect width="12" height="12" fill="white"/>
</clipPath>
</defs>
</svg>
