<svg width="14" height="14" viewBox="0 0 14 14" fill="none" xmlns="http://www.w3.org/2000/svg">
<path d="M13.6558 6.85786C12.2612 4.4981 9.7292 3.0188 7.00029 3.0188C4.27139 3.0188 1.73662 4.4981 0.344824 6.85786C0.287402 6.94263 0.287402 7.05747 0.344824 7.14224C1.73936 9.502 4.27139 10.9813 7.00029 10.9813C9.7292 10.9813 12.264 9.502 13.6558 7.14224C13.7132 7.05747 13.7132 6.94263 13.6558 6.85786ZM7.00029 10.4125C4.52568 10.4125 2.22061 9.10552 0.940918 7.00005C2.22061 4.89458 4.52568 3.58755 7.00029 3.58755C9.4749 3.58755 11.78 4.89458 13.0597 7.00005C11.78 9.10552 9.4749 10.4125 7.00029 10.4125Z" fill="#B9B9B9"/>
<path d="M7.00078 4.44067C5.57891 4.44067 4.44141 5.57817 4.44141 7.00005C4.44141 8.42192 5.57891 9.55942 7.00078 9.55942C8.42266 9.55942 9.56016 8.42192 9.56016 7.00005C9.56016 5.57817 8.42266 4.44067 7.00078 4.44067ZM7.00078 8.99067C5.89063 8.99067 5.01016 8.10747 5.01016 7.00005C5.01016 5.89263 5.89336 5.00942 7.00078 5.00942C8.1082 5.00942 8.99141 5.89263 8.99141 7.00005C8.99141 8.10747 8.11094 8.99067 7.00078 8.99067Z" fill="#B9B9B9"/>
<path d="M7.00078 5.86255V6.4313C7.3125 6.4313 7.56953 6.68833 7.56953 7.00005C7.56953 7.31177 7.3125 7.5688 7.00078 7.5688C6.68906 7.5688 6.43203 7.31177 6.43203 7.00005H5.86328C5.86328 7.62622 6.37461 8.13755 7.00078 8.13755C7.62695 8.13755 8.13828 7.62622 8.13828 7.00005C8.13828 6.37388 7.62695 5.86255 7.00078 5.86255Z" fill="#B9B9B9"/>
</svg>
